HIERARCHY
ROOT Hips
{
	OFFSET 0.000000 0.000000 0.000000
	CHANNELS 6 Xposition Yposition Zposition Zrotation Yrotation Xrotation 
	JOINT LHipJoint
	{
		OFFSET 0.000000 0.000000 0.000000
		CHANNELS 3 Zrotation Yrotation Xrotation
		JOINT LeftUpLeg
		{
			OFFSET 1.363060 -1.794630 0.839290
			CHANNELS 3 Zrotation Yrotation Xrotation
			JOINT LeftLeg
			{
				OFFSET 2.448110 -6.726130 0.000000
				CHANNELS 3 Zrotation Yrotation Xrotation
				JOINT LeftFoot
				{
					OFFSET 2.562200 -7.039590 0.000000
					CHANNELS 3 Zrotation Yrotation Xrotation
					JOINT LeftToeBase
					{
						OFFSET 0.157640 -0.433110 2.322550
						CHANNELS 3 Zrotation Yrotation Xrotation
						End Site
						{
							OFFSET 0.000000 0.000000 0.000000
						}
					}
				}
			}
		}
	}
	JOINT RHipJoint
	{
		OFFSET 0.000000 0.000000 0.000000
		CHANNELS 3 Zrotation Yrotation Xrotation
		JOINT RightUpLeg
		{
			OFFSET -1.305520 -1.794630 0.839290
			CHANNELS 3 Zrotation Yrotation Xrotation
			JOINT RightLeg
			{
				OFFSET -2.542530 -6.985550 0.000000
				CHANNELS 3 Zrotation Yrotation Xrotation
				JOINT RightFoot
				{
					OFFSET -2.568260 -7.056230 0.000000
					CHANNELS 3 Zrotation Yrotation Xrotation
					JOINT RightToeBase
					{
						OFFSET -0.164730 -0.452590 2.363150
						CHANNELS 3 Zrotation Yrotation Xrotation
						End Site
						{
							OFFSET 0.000000 0.000000 0.000000
						}
					}
				}
			}
		}
	}
	JOINT LowerBack
	{
		OFFSET 0.000000 0.000000 0.000000
		CHANNELS 3 Zrotation Yrotation Xrotation
		JOINT Spine
		{
			OFFSET 0.028270 2.035590 -0.193380
			CHANNELS 3 Zrotation Yrotation Xrotation
			JOINT Spine1
			{
				OFFSET 0.056720 2.048850 -0.042750
				CHANNELS 3 Zrotation Yrotation Xrotation
				JOINT Neck
				{
					OFFSET 0.000000 0.000000 0.000000
					CHANNELS 3 Zrotation Yrotation Xrotation
					JOINT Neck1
					{
						OFFSET -0.054170 1.746240 0.172020
						CHANNELS 3 Zrotation Yrotation Xrotation
						JOINT Head
						{
							OFFSET 0.104070 1.761360 -0.123970
							CHANNELS 3 Zrotation Yrotation Xrotation
							End Site
							{
								OFFSET 0.000000 0.000000 0.000000
							}
						}
					}
				}
				JOINT LeftShoulder
				{
					OFFSET 0.000000 0.000000 0.000000
					CHANNELS 3 Zrotation Yrotation Xrotation
					JOINT LeftArm
					{
						OFFSET 3.362410 1.200890 -0.311210
						CHANNELS 3 Zrotation Yrotation Xrotation
						JOINT LeftForeArm
						{
							OFFSET 4.983000 -0.000000 -0.000000
							CHANNELS 3 Zrotation Yrotation Xrotation
							JOINT LeftHand
							{
								OFFSET 3.483560 -0.000000 -0.000000
								CHANNELS 3 Zrotation Yrotation Xrotation
								JOINT LeftFingerBase
								{
									OFFSET 0.000000 0.000000 0.000000
									CHANNELS 3 Zrotation Yrotation Xrotation
									JOINT LeftHandIndex1
									{
										OFFSET 0.715260 -0.000000 -0.000000
										CHANNELS 3 Zrotation Yrotation Xrotation
										End Site
										{
											OFFSET 0.000000 0.000000 0.000000
										}
									}
								}
								JOINT LThumb
								{
									OFFSET 0.000000 0.000000 0.000000
									CHANNELS 3 Zrotation Yrotation Xrotation
									End Site
									{
										OFFSET 0.000000 0.000000 0.000000
									}
								}
							}
						}
					}
				}
				JOINT RightShoulder
				{
					OFFSET 0.000000 0.000000 0.000000
					CHANNELS 3 Zrotation Yrotation Xrotation
					JOINT RightArm
					{
						OFFSET -3.136600 1.374050 -0.404650
						CHANNELS 3 Zrotation Yrotation Xrotation
						JOINT RightForeArm
						{
							OFFSET -5.241900 -0.000000 -0.000000
							CHANNELS 3 Zrotation Yrotation Xrotation
							JOINT RightHand
							{
								OFFSET -3.444170 -0.000000 -0.000000
								CHANNELS 3 Zrotation Yrotation Xrotation
								JOINT RightFingerBase
								{
									OFFSET 0.000000 0.000000 0.000000
									CHANNELS 3 Zrotation Yrotation Xrotation
									JOINT RightHandIndex1
									{
										OFFSET -0.622530 -0.000000 -0.000000
										CHANNELS 3 Zrotation Yrotation Xrotation
										End Site
										{
											OFFSET 0.000000 0.000000 0.000000
										}
									}
								}
								JOINT RThumb
								{
									OFFSET 0.000000 0.000000 0.000000
									CHANNELS 3 Zrotation Yrotation Xrotation
									End Site
									{
										OFFSET 0.000000 0.000000 0.000000
									}
								}
							}
						}
					}
				}
			}
		}
	}
}
MOTION
Frames: 11
Frame Time: 0.008333
10.198579 18.009613 16.320822 -176.994012 2.419407 -179.085437 1.586788 4.442298 2.116704 -18.667023 -25.098958 1.740956 -2.998706 6.644600 19.919425 -5.115721 18.510718 -13.496195 2.783000 -10.335200 -30.069200 -5.834674 -4.422653 0.753933 31.044470 19.605694 8.632232 3.783142 -2.784931 12.260773 6.288936 -27.305717 -16.127090 -0.006500 0.520800 -1.431200 4.070878 0.729215 6.889926 2.668265 1.439512 4.991186 -5.558179 0.460932 -14.854534 -10.785144 -2.491769 -17.922412 17.296978 -3.702065 9.798571 3.277800 -1.338700 3.838500 -1.318672 -9.950493 1.834911 -89.907927 17.515052 29.008371 22.195837 -20.982013 -5.396509 2.037128 0.085392 20.895280 -8.979164 -38.972699 6.943300 -7.125000 0.000000 0.000000 -23.197800 -7.347400 28.249700 0.361852 9.432346 3.127219 89.761378 -21.259497 40.628748 -26.158714 29.044627 -7.890683 0.682498 -0.642879 3.524227 -17.689932 -54.729807 15.051000 7.125000 0.000000 0.000000 68.075700 -78.444200 -56.764300 
10.197309 18.007650 16.328329 -177.001960 2.539775 -179.101075 1.607269 4.423845 2.133229 -18.641135 -24.794277 1.540077 -2.973936 6.682890 20.030064 -5.084604 18.404939 -13.378857 2.805300 -10.373100 -30.193500 -5.822904 -4.421683 0.765519 30.983812 19.511565 8.550031 3.768498 -2.802328 12.291292 6.307682 -27.284755 -15.746652 -0.037400 1.248000 -3.431400 3.913755 0.743372 6.890976 2.828614 1.431141 5.179589 -5.504483 0.476603 -14.875472 -10.817878 -2.443009 -17.822313 17.313392 -3.636346 9.531544 3.289500 -1.328400 3.755300 -1.326474 -9.959368 1.817897 -89.944813 17.456027 28.996218 22.129357 -20.910313 -5.382224 2.037509 0.103233 21.078315 -8.415759 -39.326074 6.624400 -7.125000 0.000000 0.000000 -22.921100 -7.719700 27.981100 0.333318 9.422047 3.111684 89.554494 -21.234214 40.938680 -26.231205 29.117610 -7.921712 0.680972 -0.648545 3.407616 -18.033996 -54.502605 15.292000 7.125000 0.000000 0.000000 66.850300 -78.528100 -55.709400 
10.194883 18.003954 16.335028 -176.983419 2.666630 -179.109266 1.631847 4.405439 2.156060 -18.576191 -24.449580 1.319652 -2.951875 6.709225 20.113032 -5.033147 18.227963 -13.225467 2.835400 -10.423800 -30.360200 -5.809760 -4.415598 0.781327 30.999532 19.626557 8.528200 3.756302 -2.832606 12.343769 6.385641 -27.473093 -15.456905 -0.083600 1.864800 -5.132200 3.782239 0.761541 6.840992 3.044879 1.427025 5.426579 -5.479175 0.490849 -14.870547 -10.968733 -2.397411 -17.832076 17.405381 -3.557593 9.361149 3.337300 -1.301500 3.714500 -1.334204 -9.974447 1.796575 -89.964260 17.331165 29.039430 22.057463 -20.835020 -5.362670 2.041713 0.106688 21.040869 -8.514880 -39.481084 6.712600 -7.125000 0.000000 0.000000 -22.966300 -7.863000 28.095400 0.296866 9.414718 3.098538 89.251801 -21.217656 41.360638 -26.351275 29.240378 -7.983171 0.685155 -0.652308 3.399977 -17.718807 -54.455354 15.024400 7.125000 0.000000 0.000000 66.696700 -78.392900 -55.426000 
10.191072 18.005686 16.341380 -176.961333 2.790153 -179.067692 1.632314 4.382963 2.165413 -18.483886 -24.218055 1.102648 -2.941351 6.729446 20.170038 -4.959533 18.013684 -13.241912 2.792700 -10.351700 -30.123200 -5.801307 -4.400684 0.782817 30.938451 19.531614 8.322308 3.737657 -2.878953 12.439731 6.346217 -27.314871 -15.276845 -0.092700 1.964000 -5.406100 3.818797 0.786751 6.857431 3.080397 1.461206 5.550908 -5.522796 0.506377 -14.885712 -11.137756 -2.395736 -17.889999 17.547838 -3.542210 9.294984 3.396700 -1.295900 3.709500 -1.321512 -9.987931 1.789699 -89.922832 17.288318 29.162669 22.052666 -20.831896 -5.359834 2.038306 0.112553 21.004626 -8.297013 -39.478873 6.567300 -7.125000 0.000000 0.000000 -22.861900 -7.873200 27.948500 0.285390 9.400381 3.093720 89.009936 -21.223282 41.774421 -26.504947 29.414834 -8.081012 0.703148 -0.642754 3.531197 -15.707384 -54.901293 13.451700 7.125000 0.000000 0.000000 69.419400 -77.711800 -57.247200 
10.187376 18.008920 16.347848 -176.951914 2.939479 -179.018809 1.620768 4.364404 2.173840 -18.414794 -24.063463 0.935465 -2.936555 6.745529 20.213278 -4.901895 17.860037 -13.332135 2.709600 -10.209300 -29.657300 -5.799385 -4.385346 0.779776 30.838777 19.350047 8.040717 3.711291 -2.940392 12.572247 6.271123 -27.031585 -15.038843 -0.103800 2.078000 -5.721300 3.891627 0.829751 6.875684 3.006423 1.524400 5.657157 -5.567131 0.533686 -14.897712 -11.187813 -2.419776 -17.880704 17.639905 -3.577086 9.171699 3.424400 -1.320500 3.682800 -1.299137 -10.001011 1.787411 -89.853407 17.309479 29.322713 22.153775 -20.945698 -5.386396 2.030605 0.106622 20.846544 -8.384060 -39.158343 6.577500 -7.125000 0.000000 0.000000 -22.907400 -7.558900 27.905900 0.282979 9.385868 3.081620 88.855127 -21.196229 42.150679 -26.578984 29.496992 -8.125020 0.715858 -0.639221 3.724789 -14.426123 -54.913128 12.406600 7.125000 0.000000 0.000000 69.886500 -77.226300 -57.164700 
10.184489 18.009613 16.356164 -176.999474 3.105684 -178.992401 1.612151 4.341926 2.174487 -18.401569 -23.793759 0.746691 -2.922950 6.768781 20.265240 -4.869121 17.749805 -13.203774 2.707900 -10.206500 -29.648200 -5.805224 -4.371606 0.770038 30.746200 19.354492 7.921423 3.698544 -2.968186 12.632463 6.226323 -26.859490 -14.925454 -0.103800 2.077600 -5.720200 3.904360 0.851455 7.032008 2.863585 1.563961 5.631390 -5.558808 0.553742 -14.991050 -11.172002 -2.422756 -17.894613 17.763492 -3.602524 9.167685 3.455700 -1.329100 3.682400 -1.274877 -9.992217 1.798548 -89.786509 17.424470 29.433077 22.289448 -21.103775 -5.436906 2.021944 0.111142 20.501920 -8.516086 -39.049664 6.644000 -7.125000 0.000000 0.000000 -22.969600 -7.443700 27.955200 0.293179 9.374244 3.081041 88.717871 -21.217800 42.551254 -26.658349 29.582877 -8.163833 0.721506 -0.636234 3.461270 -14.224436 -54.686158 12.208200 7.125000 0.000000 0.000000 68.975000 -77.100200 -56.178100 
10.182525 18.010422 16.364711 -177.035188 3.207131 -178.979263 1.619083 4.314416 2.172208 -18.359080 -23.401612 0.488155 -2.901175 6.795676 20.323176 -4.842087 17.622996 -12.894506 2.833300 -10.420300 -30.348600 -5.802684 -4.357691 0.760159 30.669445 19.349701 7.831509 3.689756 -2.986807 12.673534 6.189442 -26.722714 -14.859812 -0.097400 2.012600 -5.540400 3.851288 0.833427 7.233429 2.835270 1.546212 5.568474 -5.519581 0.549282 -15.113399 -11.103913 -2.414240 -17.942651 17.726261 -3.596816 9.221772 3.440500 -1.322000 3.692300 -1.265961 -9.965189 1.810073 -89.742512 17.578345 29.596476 22.385996 -21.213044 -5.480946 2.009534 0.140994 20.187958 -7.878118 -39.246225 6.247100 -7.125000 0.000000 0.000000 -22.656900 -7.667800 27.584700 0.289863 9.369689 3.095181 88.477746 -21.306241 43.030475 -26.899419 29.850442 -8.298776 0.730052 -0.624823 2.787234 -13.547463 -54.800254 11.668900 7.125000 0.000000 0.000000 69.717900 -76.867500 -56.620200 
10.180908 18.011692 16.371294 -176.963726 3.302814 -178.949752 1.632003 4.292387 2.181147 -18.204801 -23.049707 0.217982 -2.881551 6.819824 20.382265 -4.814774 17.496878 -12.688630 2.920600 -10.565500 -30.828000 -5.796609 -4.342061 0.757691 30.677883 19.261128 7.677817 3.680129 -3.011181 12.716177 6.155870 -26.597957 -14.718425 -0.103500 2.074200 -5.710800 3.857912 0.844940 7.268930 2.904960 1.562553 5.643778 -5.532233 0.555208 -15.134730 -10.983066 -2.415933 -17.913053 17.550361 -3.593196 9.156952 3.378200 -1.330200 3.665000 -1.262784 -9.950737 1.808264 -89.642787 17.667621 29.821185 22.446981 -21.277552 -5.508632 2.001460 0.158423 20.009564 -7.434613 -39.359382 5.967100 -7.125000 0.000000 0.000000 -22.440800 -7.802400 27.322200 0.266564 9.368151 3.103239 88.258698 -21.422826 43.413294 -27.269241 30.246290 -8.501994 0.731984 -0.616322 2.323703 -12.983925 -54.994771 11.230000 7.125000 0.000000 0.000000 70.748400 -76.694200 -57.396300 
10.177674 18.015503 16.377993 -176.949177 3.437166 -178.839796 1.603255 4.263185 2.179598 -18.082641 -22.834491 -0.069478 -2.867255 6.857425 20.458627 -4.780178 17.387229 -12.662365 2.893200 -10.520200 -30.678200 -5.816820 -4.321561 0.744027 30.602254 19.102424 7.443862 3.676234 -3.009749 12.685994 6.109734 -26.403001 -14.446731 -0.111000 2.148000 -5.914700 4.049714 0.876618 7.217975 2.574786 1.624979 5.681975 -5.570796 0.574578 -15.089668 -10.691006 -2.433224 -17.834780 17.405929 -3.642828 9.036917 3.297300 -1.365700 3.622500 -1.213933 -9.950135 1.819228 -89.326369 17.765679 30.207194 22.488447 -21.315153 -5.533246 1.995928 0.173812 19.785890 -7.091555 -39.594181 5.767600 -7.125000 0.000000 0.000000 -22.273000 -8.044200 27.164300 0.283317 9.361634 3.102449 88.202894 -21.499684 43.709886 -27.629271 30.629349 -8.704593 0.723334 -0.607160 1.808646 -13.188811 -55.287687 11.428200 7.125000 0.000000 0.000000 71.939800 -76.825000 -58.659700 
10.175364 18.018275 16.384461 -176.915539 3.471279 -178.769897 1.589813 4.236979 2.177536 -17.940929 -22.570821 -0.364958 -2.841322 6.904010 20.563685 -4.711661 17.159637 -12.505149 2.886500 -10.509000 -30.641400 -5.833437 -4.305066 0.723663 30.543904 18.738218 7.193354 3.665393 -3.011330 12.672490 6.046123 -26.138558 -14.058837 -0.128700 2.312900 -6.371300 4.230554 0.828394 7.338005 2.326864 1.592343 5.658363 -5.601194 0.545166 -15.156685 -10.438948 -2.439982 -17.909092 17.311010 -3.668554 9.027959 3.238600 -1.377300 3.621100 -1.168954 -9.930674 1.837560 -89.028991 17.923998 30.674085 22.598421 -21.431359 -5.580822 1.982027 0.198416 19.324318 -6.591186 -39.721040 5.446200 -7.125000 0.000000 0.000000 -22.029200 -8.194300 26.867800 0.294233 9.355436 3.112671 88.043183 -21.619368 44.196159 -27.982120 31.000467 -8.905377 0.714312 -0.600397 1.185717 -13.593958 -55.519691 11.783300 7.125000 0.000000 0.000000 72.830200 -77.013700 -59.707900 
10.176173 18.014926 16.389080 -176.771379 3.406037 -178.825036 1.629368 4.223884 2.195113 -17.720447 -22.159600 -0.625814 -2.803284 6.941756 20.680534 -4.588489 16.741744 -12.202049 2.881500 -10.500700 -30.614000 -5.820872 -4.295341 0.717018 30.647244 18.389791 7.047821 3.646111 -3.049870 12.768611 5.992965 -25.959142 -13.878104 -0.145800 2.460800 -6.780900 4.242796 0.744162 7.592550 2.570386 1.497276 5.717512 -5.632656 0.490789 -15.324639 -10.459804 -2.427479 -18.043517 17.289476 -3.635621 9.067762 3.239800 -1.357100 3.636200 -1.167717 -9.898954 1.843933 -88.932429 18.100699 30.975695 22.799637 -21.667251 -5.666629 1.966391 0.216406 18.786871 -6.518928 -39.737470 5.392100 -7.125000 0.000000 0.000000 -21.989100 -8.210500 26.816300 0.253628 9.346903 3.127882 87.668315 -21.829660 44.892904 -28.253702 31.280644 -9.065982 0.723795 -0.598966 1.126780 -12.327475 -55.659375 10.759200 7.125000 0.000000 0.000000 73.754200 -76.562300 -60.091000 
